<svg width="349.974" xmlns="http://www.w3.org/2000/svg" height="349.974" fill="none"><g style="fill: rgb(0, 0, 0);"><path d="M174.982 0C78.339.003-.002 78.349 0 174.991c.002 96.639 78.343 174.98 174.982 174.983A174.983 174.983 0 0 0 298.721 51.252 174.989 174.989 0 0 0 174.982 0Zm.691 35.733c4.693 0 9.395 2.277 12.028 6.835l111.556 193.215c4.915 8.513-.703 19.987-11.036 20.555-8.104.445-22.827.555-36.541-2.286l-14.206 21.063a9.6 9.6 0 0 1-8.847 4.19 9.633 9.633 0 0 1-7.935-5.767l-8.79-20.4-8.819 20.42a9.608 9.608 0 0 1-8.809 5.795 9.635 9.635 0 0 1-8.82-5.813l-8.8-20.402-8.799 20.4a9.621 9.621 0 0 1-8.809 5.815 9.649 9.649 0 0 1-8.829-5.813l-8.79-20.402-8.79 20.4v.02a9.62 9.62 0 0 1-7.935 5.747 9.606 9.606 0 0 1-8.847-4.192l-14.342-21.245c-17.535 4.159-32.073 3.807-39.945 2.849-9.977-1.215-14.443-12.296-9.898-20.166L163.655 42.568c2.632-4.558 7.325-6.835 12.018-6.835Zm0 6.184c-2.505 0-4.996 1.278-6.476 3.841L57.193 239.741c-2.418 4.186-.553 9.952 5.154 10.646 7.644.931 22.126 1.572 39.884-3.042l2.199-.575 16.724 24.776a3.208 3.208 0 0 0 5.621-.525l14.652-34.003 14.664 34.003a3.203 3.203 0 0 0 2.955 1.944 3.196 3.196 0 0 0 2.954-1.944l14.654-34.003 14.664 34.003a3.202 3.202 0 0 0 2.955 1.944 3.19 3.19 0 0 0 2.947-1.944l14.682-34.003 14.663 34.003a3.21 3.21 0 0 0 5.62.525l16.52-24.504 2.149.506c13.196 3.115 28.748 2.865 37.017 2.412 5.886-.325 8.545-6.318 5.854-10.978L182.177 45.758c-1.48-2.564-3.999-3.841-6.504-3.841Zm0 5.483 113.248 196.132-5.319.175c-9.757.316-24.006.06-35.5-3.577-1.718-.545-3.473.347-4.035 2.051l-.136.418-13.788 20.458-15.285-35.443a3.203 3.203 0 0 0-2.955-1.943 3.202 3.202 0 0 0-2.957 1.944l-14.672 34.003-14.673-34.003a3.188 3.188 0 0 0-2.947-1.944 3.202 3.202 0 0 0-2.954 1.944l-14.654 33.993-14.664-33.993a3.203 3.203 0 0 0-2.955-1.944 3.2 3.2 0 0 0-2.956 1.944l-15.286 35.451-14.342-21.246a3.153 3.153 0 0 0-1.671-1.273l-.274-.068-.241-.146a3.174 3.174 0 0 0-2.412-.234c-15.55 4.6-28.715 4.869-36.999 4.288l-5.085-.359Zm.019 12.767L73.042 237.953c7.619.121 17.38-.425 29.394-3.977 2.387-.707 4.849-.333 6.932.689 1.862.664 3.591 1.825 4.774 3.579l7.809 11.571 10.656-24.727a9.602 9.602 0 0 1 17.628 0l8.811 20.4 8.789-20.4a9.617 9.617 0 0 1 17.649 0l8.79 20.409 8.809-20.408a9.619 9.619 0 0 1 8.819-5.796 9.62 9.62 0 0 1 8.819 5.795l10.657 24.727 6.913-10.259c1.877-4.539 6.978-7.019 11.736-5.512 8.407 2.661 19 3.189 27.887 3.179Zm62.599 179.388c-.088.214-.208.41-.282.632l.389-.787Zm-64.505-94.784c2.534 0 5.057 1.205 6.456 3.628l23.143 40.08c2.796 4.844-.882 11.2-6.477 11.2h-46.273c-5.593 0-9.253-6.356-6.456-11.2l23.131-40.08c1.4-2.423 3.942-3.628 6.476-3.628Zm0 6.184c-.343 0-.697.216-.943.642L149.7 191.668c-.493.855-.052 1.623.935 1.623h46.273c.987 0 1.438-.769.943-1.623l-23.132-40.071c-.246-.426-.588-.642-.933-.642Z" style="stroke: none; fill: rgb(0, 0, 0); fill-opacity: 1;" class="fills"/><g class="strokes" style="stroke: none;"><path d="M174.982 0C78.339.003-.002 78.349 0 174.991c.002 96.639 78.343 174.98 174.982 174.983A174.983 174.983 0 0 0 298.721 51.252 174.989 174.989 0 0 0 174.982 0Zm.691 35.733c4.693 0 9.395 2.277 12.028 6.835l111.556 193.215c4.915 8.513-.703 19.987-11.036 20.555-8.104.445-22.827.555-36.541-2.286l-14.206 21.063a9.6 9.6 0 0 1-8.847 4.19 9.633 9.633 0 0 1-7.935-5.767l-8.79-20.4-8.819 20.42a9.608 9.608 0 0 1-8.809 5.795 9.635 9.635 0 0 1-8.82-5.813l-8.8-20.402-8.799 20.4a9.621 9.621 0 0 1-8.809 5.815 9.649 9.649 0 0 1-8.829-5.813l-8.79-20.402-8.79 20.4v.02a9.62 9.62 0 0 1-7.935 5.747 9.606 9.606 0 0 1-8.847-4.192l-14.342-21.245c-17.535 4.159-32.073 3.807-39.945 2.849-9.977-1.215-14.443-12.296-9.898-20.166L163.655 42.568c2.632-4.558 7.325-6.835 12.018-6.835Zm0 6.184c-2.505 0-4.996 1.278-6.476 3.841L57.193 239.741c-2.418 4.186-.553 9.952 5.154 10.646 7.644.931 22.126 1.572 39.884-3.042l2.199-.575 16.724 24.776a3.208 3.208 0 0 0 5.621-.525l14.652-34.003 14.664 34.003a3.203 3.203 0 0 0 2.955 1.944 3.196 3.196 0 0 0 2.954-1.944l14.654-34.003 14.664 34.003a3.202 3.202 0 0 0 2.955 1.944 3.19 3.19 0 0 0 2.947-1.944l14.682-34.003 14.663 34.003a3.21 3.21 0 0 0 5.62.525l16.52-24.504 2.149.506c13.196 3.115 28.748 2.865 37.017 2.412 5.886-.325 8.545-6.318 5.854-10.978L182.177 45.758c-1.48-2.564-3.999-3.841-6.504-3.841Zm0 5.483 113.248 196.132-5.319.175c-9.757.316-24.006.06-35.5-3.577-1.718-.545-3.473.347-4.035 2.051l-.136.418-13.788 20.458-15.285-35.443a3.203 3.203 0 0 0-2.955-1.943 3.202 3.202 0 0 0-2.957 1.944l-14.672 34.003-14.673-34.003a3.188 3.188 0 0 0-2.947-1.944 3.202 3.202 0 0 0-2.954 1.944l-14.654 33.993-14.664-33.993a3.203 3.203 0 0 0-2.955-1.944 3.2 3.2 0 0 0-2.956 1.944l-15.286 35.451-14.342-21.246a3.153 3.153 0 0 0-1.671-1.273l-.274-.068-.241-.146a3.174 3.174 0 0 0-2.412-.234c-15.55 4.6-28.715 4.869-36.999 4.288l-5.085-.359Zm.019 12.767L73.042 237.953c7.619.121 17.38-.425 29.394-3.977 2.387-.707 4.849-.333 6.932.689 1.862.664 3.591 1.825 4.774 3.579l7.809 11.571 10.656-24.727a9.602 9.602 0 0 1 17.628 0l8.811 20.4 8.789-20.4a9.617 9.617 0 0 1 17.649 0l8.79 20.409 8.809-20.408a9.619 9.619 0 0 1 8.819-5.796 9.62 9.62 0 0 1 8.819 5.795l10.657 24.727 6.913-10.259c1.877-4.539 6.978-7.019 11.736-5.512 8.407 2.661 19 3.189 27.887 3.179Zm62.599 179.388c-.088.214-.208.41-.282.632l.389-.787Zm-64.505-94.784c2.534 0 5.057 1.205 6.456 3.628l23.143 40.08c2.796 4.844-.882 11.2-6.477 11.2h-46.273c-5.593 0-9.253-6.356-6.456-11.2l23.131-40.08c1.4-2.423 3.942-3.628 6.476-3.628Zm0 6.184c-.343 0-.697.216-.943.642L149.7 191.668c-.493.855-.052 1.623.935 1.623h46.273c.987 0 1.438-.769.943-1.623l-23.132-40.071c-.246-.426-.588-.642-.933-.642Z" style="fill: none; stroke-width: 3.62255;" class="stroke-shape"/></g></g></svg>