<svg width="256" height="256" fill="none" xmlns="http://www.w3.org/2000/svg"><path style="fill:#000" d="M-118.94-10.422c-2.24.097-4.417.77-6.326 1.951a13.143 13.143 0 0 0-3.992 3.89l-8.242.772-31.498 19.807-3.617 7.03a13.11 13.11 0 0 0-5.067 1.81 13.143 13.143 0 0 0-6.054 11.44 13.103 13.103 0 0 0 1.48 5.486l-3.799 7.38-.006.008.006.002 2.059 36.957 4.045 6.946a13.144 13.144 0 0 0-1.053 5.841 13.1 13.1 0 0 0 2.049 6.393 13.066 13.066 0 0 0 9.584 5.934l4.11 7.054h.001l33.59 17.735 9.041-.438a13.064 13.064 0 0 0 10.127 4.295 13.104 13.104 0 0 0 6.447-1.963 13.143 13.143 0 0 0 3.6-3.306l7.969-.385 32.445-21.223-.02.004 3.602-6.969a13.104 13.104 0 0 0 5.152-1.91 13.136 13.136 0 0 0 6.045-11.529 13.097 13.097 0 0 0-1.433-5.459l3.672-7.105-14.45-29.215 1.01 22.361-2.955 5.701-5.38-4.394a5.945 5.945 0 0 0-4.327-1.215 5.98 5.98 0 0 0-5.273 6.457 5.952 5.952 0 0 0 2.05 4l2.928 2.39a13.136 13.136 0 0 0-.572.979 13.135 13.135 0 0 0-.664 1.557l-3.094-1.245a5.955 5.955 0 0 0-4.51.108 5.979 5.979 0 0 0-3.13 7.758 5.943 5.943 0 0 0 3.175 3.203l.012.006 7.142 2.869-2.423 4.68-19.703 13.048-.008.002-5.453.262-.497-10.732a5.952 5.952 0 0 0-1.994-3.98 5.942 5.942 0 0 0-4.197-1.481 5.97 5.97 0 0 0-5.701 5.992v.037l.203 4.494a13.07 13.07 0 0 0-.55-.014 13.11 13.11 0 0 0-2.706.383l-.799-4.963a5.931 5.931 0 0 0-2.338-3.97 5.901 5.901 0 0 0-4.474-1.09 5.933 5.933 0 0 0-3.91 2.443 5.954 5.954 0 0 0-.989 4.506l1.516 9.648-5.287.256-19.899-10.41-2.501-4.297 8.33-4.87a5.944 5.944 0 0 0 2.152-8.116 5.92 5.92 0 0 0-8.102-2.143l-3.484 2.02a13.085 13.085 0 0 0-1.715-2.914l3.46-2.602a5.951 5.951 0 0 0 2.288-3.9 5.92 5.92 0 0 0-9.377-5.608l-.045-.025-6.894 5.176-2.656-4.563-1.784-22.533.006-.014 2.54-4.935 6.152 3.885a5.923 5.923 0 0 0 4.472.752 5.948 5.948 0 0 0 3.7-2.63v-.001a5.942 5.942 0 0 0 .771-4.465 5.917 5.917 0 0 0-2.605-3.701l-2.41-1.535a13.14 13.14 0 0 0 .97-1.567 13.13 13.13 0 0 0 .692-1.59l2.193 1.055a5.918 5.918 0 0 0 4.53.24 5.943 5.943 0 0 0 3.376-3.033 5.942 5.942 0 0 0 .252-4.522 5.917 5.917 0 0 0-3.01-3.376l-6.832-3.323 2.153-4.181.213-.317 19.298-11.61.008.077 4.77-.447-.227 9.685a5.955 5.955 0 0 0 1.68 4.19 5.942 5.942 0 0 0 4.135 1.802 5.963 5.963 0 0 0 4.217-1.619 5.978 5.978 0 0 0 1.877-4.113l.119-5.055a13.068 13.068 0 0 0 1.422.051 13.107 13.107 0 0 0 1.834-.19l.416 4.573-.008.012a5.975 5.975 0 0 0 8.734 4.69 5.943 5.943 0 0 0 2.904-3.505c.23-.746.31-1.529.237-2.308v-.002l-.973-10.682 6.24-.586.004.05 16.565 8.349-17.758-23.512-.002-.002-9.094.851a13.077 13.077 0 0 0-9.902-3.945zm18.999 3.096 20.51 27.103 2.318 3.598-8.905 5.207a5.976 5.976 0 0 0-2.095 8.123 5.944 5.944 0 0 0 8.086 2.174l.007.006 5.102-2.987a13.122 13.122 0 0 0 .834 1.747 13.058 13.058 0 0 0 .781.912l-5.031 3.775a5.943 5.943 0 0 0-1.213 8.309 5.913 5.913 0 0 0 6.207 2.197 5.934 5.934 0 0 0 2.09-1l.014.014 8.425-6.276 3.403 5.28-.03.015 14.403 29.104-1.635-37.348-4.457-6.916a13.149 13.149 0 0 0 1.092-5.943 13.101 13.101 0 0 0-2.08-6.448 13.068 13.068 0 0 0-10.828-5.949l-3.889-6.033z" transform="translate(324.784 17.768) scale(1.70313)"/><path d="M133.974 309.696c-26.885 0-50.052-4.433-69.5-13.299-19.45-8.867-34.608-21.88-45.476-39.041-10.582-17.16-16.446-38.468-17.59-63.923C1.122 181.706.98 169.122.98 155.68c0-13.443.143-26.313.43-38.612C2.553 92.185 8.56 71.02 19.428 53.574c10.868-17.447 26.027-30.603 45.476-39.47 19.446-8.866 42.471-13.3 69.07-13.3 18.877 0 36.323 2.432 52.34 7.294 16.017 4.576 30.031 11.44 42.044 20.593 12.012 8.866 21.307 19.735 27.886 32.605 6.864 12.585 10.439 26.885 10.725 42.902.286 2.574-.572 4.719-2.574 6.435-1.716 1.716-3.861 2.574-6.435 2.574h-57.917c-3.719 0-6.579-.715-8.581-2.145-2.002-1.716-3.718-4.719-5.148-9.009-4.004-15.159-10.582-25.455-19.735-30.89-8.866-5.72-19.877-8.58-33.034-8.58-15.73 0-28.172 4.433-37.324 13.3-9.153 8.58-14.158 23.023-15.016 43.33-.858 23.453-.858 47.478 0 72.075.858 20.307 5.863 34.893 15.016 43.759 9.152 8.581 21.594 12.871 37.324 12.871 13.157 0 24.311-2.86 33.463-8.58 9.153-5.721 15.588-16.017 19.306-30.89 1.144-4.29 2.717-7.15 4.719-8.58 2.288-1.716 5.291-2.574 9.01-2.574h57.917c2.574 0 4.719.858 6.435 2.574 2.002 1.716 2.86 3.861 2.574 6.435-.286 16.017-3.861 30.46-10.725 43.331-6.579 12.584-15.874 23.453-27.886 32.605-12.013 8.866-26.027 15.731-42.044 20.593-16.017 4.576-33.463 6.864-52.34 6.864z" fill="#fff" style="fill:#000" transform="translate(95.37 90.174) scale(.2435)"/></svg>