<svg width="256" height="256" viewBox="0 0 67.733 67.733" xmlns="http://www.w3.org/2000/svg"><defs><clipPath clipPathUnits="userSpaceOnUse" id="a"><path d="M0 720h720V0H0Z"/></clipPath></defs><g clip-path="url(#a)" transform="matrix(.26115 0 0 -.26115 -60.146 134.663)" style="fill:#000"><g style="fill:#000"><path d="M0 0h18.752l61.966 95.721-11.414 14.921Z" style="fill:#000;fill-opacity:1;fill-rule:nonzero;stroke:none" transform="translate(294.465 331.402)"/></g><g style="fill:#000"><path d="M0 0h14.088l46.551 71.908-8.576 11.209Z" style="fill:#000;fill-opacity:1;fill-rule:nonzero;stroke:none" transform="translate(264.297 331.402)"/></g><g style="fill:#000"><path d="M0 0h9.709l32.078 49.552-5.91 7.725z" style="fill:#000;fill-opacity:1;fill-rule:nonzero;stroke:none" transform="translate(244.854 331.483)"/></g><g style="fill:#000"><path d="M0 0h40.441l70.936-110.561H71.385Z" style="fill:#000;fill-opacity:1;fill-rule:nonzero;stroke:none" transform="translate(363.77 442.044)"/></g><g style="fill:#000"><path d="M0 0h30.381l53.288-83.056H53.626Z" style="fill:#000;fill-opacity:1;fill-rule:nonzero;stroke:none" transform="translate(316.36 414.519)"/></g><g style="fill:#000"><path d="M0 0h20.936l36.722-57.235H36.954Z" style="fill:#000;fill-opacity:1;fill-rule:nonzero;stroke:none" transform="translate(280.731 388.76)"/></g><g style="fill:#000"><path d="m0 0 11.145.291 12.792.264c4.938.106 10.51.227 16.589.286l19.63.248c6.966.086 14.311.199 21.909.228l23.43.13 24.19.052 24.189-.051 23.429-.127c15.197-.089 29.381-.345 41.539-.477 6.078-.059 11.651-.177 16.59-.285l12.791-.267L259.368 0l-11.145-.292-12.791-.267c-4.939-.108-10.512-.226-16.59-.285-12.158-.132-26.342-.388-41.539-.477l-23.429-.127-24.189-.051-24.19.052-23.43.13c-7.598.029-14.943.142-21.909.228l-19.63.248c-6.079.059-11.651.18-16.589.286l-12.792.264L0 0" style="fill:#000;fill-opacity:1;fill-rule:nonzero;stroke:none" transform="translate(230.316 331.402)"/></g></g></svg>