<svg width="256" height="256" fill="none" xmlns="http://www.w3.org/2000/svg"><path d="M189.117 0c.684 17.906-19.695 35.554-26.377 41.704a108.103 108.103 0 0 0-26.972-3.426A108.104 108.104 0 0 0 51.66 78.503c-9.134-3.282-21.409-10.098-30.89-26.886-5.533 16.636 13.948 45.473 16.834 49.613a108.11 108.11 0 0 0-9.076 32.064c-3.83.683-6.593 0-16.402-4.675 1.294 10.7 12.967 16.227 15.551 17.326l-.016.44a108.105 108.105 0 0 0 45.183 87.827c-.779 5.883-2.312 18.827-1.14 21.788 7.714-5.125 12.995-9.686 16.172-12.736a108.106 108.106 0 0 0 47.892 11.226 108.102 108.102 0 0 0 50.825-12.777c3.982 3.294 10.945 8.645 15.454 9.822-.55-8.635-1.706-14.566-2.54-17.925a108.107 108.107 0 0 0 44.367-87.226c0-20.35-5.75-40.288-16.58-57.519 1.768-6.529 4.255-17.465.005-25.21-1.649 8.066-4.244 8.661-8.793 13.155a108.082 108.082 0 0 0-30.973-25.323c3.78-11.024 15.426-36.711 1.584-51.487ZM110.37 97.895c16.026 0 29.018 12.993 29.017 29.02 0 16.025-12.991 29.016-29.017 29.016-16.026.001-29.018-12.99-29.018-29.017-.001-16.027 12.991-29.019 29.018-29.019zm88.107 36.265s9.545 61.714-41.203 79.73c0 0-1.662-10.671-11.954-15.735 3.555 8.153 1.15 19.84 1.15 19.84-13.66 2.969-30.395 2.223-42.693-.853 0 0-2.58-10.416 1.465-18.104-7.863 4.154-12.24 12.827-13.186 14.586-20.164-8.01-28.026-24.59-38.582-51.528a439.574 439.574 0 0 0 16.903 2.66c.307 4.48 2.723 31.444 16.665 35.406-4.87-11.326.092-27.693 5.375-32.732 16.391 1.592 28.399 1.008 54.742-6.907 6.848 2.949 11.875 19.49 11.38 28.756 12.225-5.938 11.849-30.46 11.496-37.3 9.27-4.7 18.664-10.539 28.442-17.82z" fill="#fff" style="fill:#000;stroke-width:3.55556"/></svg>