<svg viewBox="0 0 135.467 135.467" xmlns="http://www.w3.org/2000/svg"><path fill="currentColor" d="M67.044-.023 10.656 96.982c-.097.858.653 1.506.945 2.268 5.891 10.846 11.784 21.69 17.674 32.536.69.522 1.65.368 2.46.585 6.927 1.032 13.848 2.12 20.777 3.116 10.13-.015 20.262.028 30.39-.022 7.582-1.136 15.164-2.27 22.747-3.407.75-.49.94-1.48 1.44-2.194 5.907-10.788 11.817-21.576 17.725-32.365.074-.863-.7-1.488-1.02-2.242-18.613-31.76-37.224-63.522-55.84-95.28l-.91.002zm38.702 86.308-36.296-3.46V11.531zm-40.19-3.458-35.968 3.458C41.576 61.387 53.566 36.49 65.556 11.593zm31.258-25.9 20.144 34.37-6.437-4.092-19.493-40.147 5.785 9.869zM29.316 77.871l-4.498 9.342-6.342 4.065 25.547-43.95zm45.64 9.395 30.392 2.896c-6.908 9.1-13.814 18.203-20.72 27.305-4.653-10.203-9.303-20.406-13.954-30.61l4.28.409zm-24.443 30.18L29.98 90.161l34.364-3.302-13.83 30.585zm30.667 1.848H53.952L67.51 89.311zm38.951-21.361-10.384 18.96 1.07-24.886zm-95.48-3.096.936 21.998-10.27-18.904 9.213-5.909.12 2.815zm80.94 28.033-17.883-3.013L106.8 94.696l-1.208 28.175zm-64.728-11.772 6.59 8.76-17.71 3.008-1.198-28.136 12.318 16.367zm43.19 12.09c6.788 1.147 13.576 2.29 20.365 3.435-.383.59-.632 1.374-1.099 1.844-6.985 1.037-13.966 2.112-20.953 3.124-9.933-.01-19.869.02-29.8-.015-6.89-1.04-13.78-2.08-20.67-3.122l-.995-1.833c6.764-1.14 13.525-2.322 20.292-3.432h32.86z"/></svg>