<svg xmlns="http://www.w3.org/2000/svg" width="494.84" height="512" viewBox="0 0 130.927 135.467"><path fill="currentColor" d="M64.776-.02 8.388 96.985c-.097.858.653 1.506.945 2.268 5.891 10.846 11.784 21.69 17.674 32.536.69.522 1.65.368 2.46.585 6.927 1.032 13.848 2.12 20.777 3.116 10.129-.015 20.262.028 30.389-.022 7.583-1.136 15.165-2.27 22.748-3.407.749-.49.94-1.48 1.44-2.194 5.907-10.788 11.817-21.576 17.725-32.365.074-.863-.7-1.488-1.02-2.242C102.913 63.5 84.302 31.738 65.686-.02l-.91.002zm38.702 86.308-36.296-3.46V11.534l36.296 74.754zm-40.19-3.458L27.32 86.288C39.308 61.39 51.298 36.493 63.288 11.596V82.83zm31.258-25.9L114.69 91.3l-6.437-4.092-19.493-40.147 5.785 9.869zM27.048 77.874l-4.498 9.342-6.342 4.065 25.547-43.95-14.707 30.543zm45.639 9.395 30.393 2.896c-6.908 9.1-13.814 18.203-20.72 27.305-4.653-10.203-9.303-20.406-13.954-30.61l4.28.409zm-24.442 30.18L27.712 90.164l34.364-3.302-13.831 30.585zm30.667 1.848H51.684l13.558-29.983 13.67 29.983zm38.951-21.361-10.384 18.96 1.069-24.886 9.315 5.926zm-95.48-3.096.936 21.998-10.271-18.904 9.214-5.909.12 2.815zm80.94 28.033L85.44 119.86l19.091-25.161-1.208 28.175zm-64.728-11.772 6.59 8.76-17.71 3.008-1.198-28.136L38.595 111.1zm43.19 12.09c6.788 1.147 13.576 2.29 20.365 3.435-.383.59-.632 1.374-1.099 1.844-6.985 1.037-13.966 2.112-20.953 3.124-9.933-.01-19.869.02-29.8-.015-6.89-1.04-13.78-2.08-20.67-3.122l-.995-1.833c6.764-1.14 13.525-2.322 20.292-3.432h32.86z"/></svg>
