<?xml version="1.0" encoding="UTF-8" standalone="no"?>
<svg
   viewBox="0 0 135.46727 135.467"
   version="1.1"
   id="svg4"
   sodipodi:docname="logo.inline.svg"
   inkscape:version="1.1.1 (3bf5ae0d25, 2021-09-20, custom)"
   xmlns:inkscape="http://www.inkscape.org/namespaces/inkscape"
   xmlns:sodipodi="http://sodipodi.sourceforge.net/DTD/sodipodi-0.dtd"
   xmlns="http://www.w3.org/2000/svg"
   xmlns:svg="http://www.w3.org/2000/svg">
  <defs
     id="defs8" />
  <sodipodi:namedview
     id="namedview6"
     pagecolor="#ffffff"
     bordercolor="#cccccc"
     borderopacity="1"
     inkscape:pageshadow="0"
     inkscape:pageopacity="1"
     inkscape:pagecheckerboard="0"
     showgrid="false"
     inkscape:zoom="0.3359375"
     inkscape:cx="555.16279"
     inkscape:cy="297.67442"
     inkscape:window-width="1600"
     inkscape:window-height="900"
     inkscape:window-x="0"
     inkscape:window-y="0"
     inkscape:window-maximized="1"
     inkscape:current-layer="svg4" />
  <path
     fill="currentColor"
     d="m 67.044454,-0.02301266 -56.388,97.00499966 c -0.097,0.858 0.653,1.506 0.945,2.268 5.891,10.846003 11.784,21.690003 17.674,32.536003 0.69,0.522 1.65,0.368 2.46,0.585 6.927,1.032 13.848,2.12 20.777,3.116 10.129,-0.015 20.262,0.028 30.389,-0.022 7.583,-1.136 15.165,-2.27 22.747996,-3.407 0.749,-0.49 0.94,-1.48 1.44,-2.194 5.907,-10.788 11.817,-21.576 17.725,-32.365003 0.074,-0.863 -0.7,-1.488 -1.02,-2.242 -18.613,-31.76 -37.223996,-63.522 -55.839996,-95.27999966 l -0.91,0.002 z m 38.701996,86.30799966 -36.295996,-3.46 v -71.294 z m -40.189996,-3.458 -35.968,3.458 c 11.988,-24.898 23.978,-49.795 35.968,-74.692 z m 31.258,-25.9 20.143996,34.37 -6.437,-4.092 -19.492996,-40.147 5.785,9.869 z m -67.498,20.944 -4.498,9.342 -6.342,4.065 25.547,-43.95 z m 45.639,9.395 30.392996,2.896 c -6.907996,9.1 -13.813996,18.203003 -20.719996,27.305003 -4.653,-10.203 -9.303,-20.406003 -13.954,-30.610003 l 4.28,0.409 z m -24.442,30.180003 -20.533,-27.285003 34.364,-3.302 -13.831,30.585003 z m 30.667,1.848 h -27.228 l 13.558,-29.983003 z m 38.950996,-21.361003 -10.384,18.960003 1.069,-24.886003 z m -95.479996,-3.096 0.936,21.998003 -10.271,-18.904003 9.214,-5.909 0.12,2.815 z m 80.939996,28.033003 -17.882996,-3.013 19.090996,-25.161003 -1.208,28.175003 z m -64.727996,-11.772 6.59,8.76 -17.71,3.008 -1.198,-28.136003 12.318,16.367003 z m 43.19,12.09 c 6.788,1.147 13.576,2.29 20.364996,3.435 -0.383,0.59 -0.632,1.374 -1.099,1.844 -6.984996,1.037 -13.965996,2.112 -20.952996,3.124 -9.933,-0.01 -19.869,0.02 -29.8,-0.015 -6.89,-1.04 -13.78,-2.08 -20.67,-3.122 l -0.995,-1.833 c 6.764,-1.14 13.525,-2.322 20.292,-3.432 h 32.86 z"
     id="path2" />
</svg>
